<svg width="200" height="100" viewBox="0 0 200 100" fill="none" xmlns="http://www.w3.org/2000/svg">
<g clip-path="url(#clip0_6_31)">
<mask id="mask0_6_31" style="mask-type:luminance" maskUnits="userSpaceOnUse" x="-4" y="-24" width="208" height="147">
<path d="M-3.98779 -23.7065H203.988V122.866H-3.98779V-23.7065Z" fill="white"/>
</mask>
<g mask="url(#mask0_6_31)">
<path d="M76.4913 83.5604C75.7996 83.2676 75.2662 82.848 74.8917 82.3019C74.5172 81.7565 74.3297 81.1212 74.3297 80.3973V80.0184C74.3297 79.9608 74.3498 79.9123 74.3903 79.8719C74.4305 79.8318 74.4794 79.8116 74.5375 79.8116H76.5086C76.5664 79.8116 76.6151 79.8318 76.6556 79.8719C76.6958 79.9123 76.7161 79.9608 76.7161 80.0184V80.2767C76.7161 80.7364 76.9293 81.1244 77.3559 81.4401C77.7825 81.7565 78.3591 81.9141 79.0851 81.9141C79.6963 81.9141 80.1513 81.7848 80.4512 81.5265C80.7509 81.2678 80.9011 80.9491 80.9011 80.5699C80.9011 80.2939 80.8087 80.0612 80.6242 79.8719C80.4396 79.6823 80.1891 79.5159 79.8722 79.3721C79.5548 79.2283 79.0506 79.0303 78.3591 78.7772C77.5866 78.5132 76.9322 78.2429 76.3962 77.9673C75.8601 77.6913 75.4105 77.3153 75.0474 76.8381C74.6845 76.3617 74.5027 75.7725 74.5027 75.0717C74.5027 74.3823 74.6815 73.779 75.0387 73.2617C75.3959 72.7446 75.8917 72.3485 76.5261 72.0724C77.1598 71.7969 77.8922 71.6588 78.722 71.6588C79.598 71.6588 80.3791 71.8141 81.0654 72.1244C81.7509 72.4344 82.287 72.8682 82.6733 73.4257C83.0597 73.9832 83.2526 74.6295 83.2526 75.3647V75.623C83.2526 75.6806 83.2324 75.7296 83.1921 75.7695C83.1516 75.8099 83.1029 75.8301 83.0451 75.8301H81.0565C80.9987 75.8301 80.95 75.8099 80.9097 75.7695C80.8692 75.7296 80.8492 75.6806 80.8492 75.623V75.4854C80.8492 75.0025 80.6504 74.5918 80.2526 74.2528C79.8547 73.9142 79.3099 73.7446 78.6183 73.7446C78.0763 73.7446 77.6526 73.8595 77.3475 74.0893C77.0419 74.3192 76.889 74.6352 76.889 75.0372C76.889 75.3243 76.9784 75.5656 77.157 75.7609C77.3357 75.9567 77.6007 76.1317 77.9525 76.2866C78.3043 76.442 78.8487 76.6515 79.5866 76.9157C80.4053 77.2149 81.0478 77.4788 81.515 77.7086C81.9819 77.9385 82.4026 78.2805 82.7771 78.7343C83.1516 79.1884 83.3393 79.7771 83.3393 80.5008C83.3393 81.581 82.9414 82.4341 82.1461 83.0603C81.3507 83.6869 80.2726 83.9999 78.9125 83.9999C77.9898 83.9999 77.1832 83.8531 76.4913 83.5604Z" fill="#2DABE2"/>
<path d="M91.2415 76.7695C91.5641 76.4651 91.7256 76.066 91.7256 75.5716C91.7256 75.0661 91.5641 74.6578 91.2415 74.3476C90.9186 74.0373 90.492 73.8825 89.9618 73.8825H87.7657C87.7079 73.8825 87.6792 73.9115 87.6792 73.9686V77.1398C87.6792 77.1974 87.7079 77.2262 87.7657 77.2262H89.9618C90.492 77.2262 90.9186 77.0738 91.2415 76.7695ZM92.3309 72.245C92.9072 72.5553 93.3538 72.9948 93.671 73.5636C93.988 74.1321 94.1466 74.7846 94.1466 75.5196C94.1466 76.2438 93.9823 76.8815 93.6537 77.433C93.3252 77.9848 92.864 78.4128 92.2704 78.7171C91.6765 79.0214 90.9934 79.1741 90.2212 79.1741H87.7657C87.7079 79.1741 87.6792 79.2024 87.6792 79.26V83.6552C87.6792 83.7128 87.659 83.7613 87.6187 83.8019C87.5782 83.8423 87.5293 83.862 87.4717 83.862H85.4485C85.3907 83.862 85.3418 83.8423 85.3015 83.8019C85.261 83.7613 85.241 83.7128 85.241 83.6552V71.9863C85.241 71.9291 85.261 71.8806 85.3015 71.84C85.3418 71.7996 85.3907 71.7794 85.4485 71.7794H90.325C91.0858 71.7794 91.7543 71.9348 92.3309 72.245Z" fill="#2DABE2"/>
<path d="M98.1755 80.0526H101.219C101.288 80.0526 101.311 80.0184 101.288 79.9492L99.7319 74.8304C99.7202 74.7846 99.703 74.7644 99.68 74.7699C99.6568 74.776 99.6395 74.7957 99.6281 74.8304L98.1064 79.9492C98.0948 80.0184 98.1177 80.0526 98.1755 80.0526ZM102.429 83.6896L101.911 82.0003C101.887 81.9547 101.859 81.9316 101.824 81.9316H97.5703C97.5357 81.9316 97.5068 81.9547 97.4838 82.0003L96.9824 83.6896C96.9478 83.8046 96.8727 83.862 96.7576 83.862H94.5614C94.4923 83.862 94.4404 83.8423 94.4058 83.8019C94.3712 83.7615 94.3653 83.7012 94.3885 83.6205L98.1237 71.969C98.1582 71.8545 98.2331 71.7969 98.3485 71.7969H101.063C101.178 71.7969 101.254 71.8545 101.288 71.969L105.023 83.6205C105.035 83.6436 105.041 83.6724 105.041 83.7066C105.041 83.81 104.977 83.862 104.85 83.862H102.654C102.539 83.862 102.464 83.8046 102.429 83.6896Z" fill="#2DABE2"/>
<path d="M108.361 83.4743C107.68 83.1237 107.156 82.6327 106.787 82.0004C106.418 81.3688 106.234 80.6388 106.234 79.8117V75.8302C106.234 75.0026 106.418 74.2731 106.787 73.641C107.156 73.0092 107.68 72.5207 108.361 72.1757C109.041 71.8315 109.83 71.6589 110.73 71.6589C111.618 71.6589 112.399 71.8229 113.073 72.1504C113.747 72.4778 114.272 72.943 114.646 73.5465C115.021 74.1495 115.209 74.8478 115.209 75.6404C115.209 75.7438 115.139 75.8071 115.001 75.8302L112.978 75.9504H112.943C112.828 75.9504 112.77 75.8876 112.77 75.761C112.77 75.1521 112.583 74.6641 112.208 74.2962C111.834 73.9281 111.341 73.7444 110.73 73.7444C110.107 73.7444 109.609 73.9281 109.234 74.2962C108.859 74.6641 108.672 75.1521 108.672 75.761V79.9151C108.672 80.5125 108.859 80.9953 109.234 81.3627C109.609 81.7305 110.107 81.9142 110.73 81.9142C111.341 81.9142 111.834 81.7305 112.208 81.3627C112.583 80.9953 112.77 80.5125 112.77 79.9151C112.77 79.7885 112.84 79.725 112.978 79.725L115.001 79.8117C115.058 79.8117 115.108 79.8284 115.148 79.8632C115.188 79.8979 115.209 79.9383 115.209 79.9838C115.209 80.7769 115.021 81.4777 114.646 82.0863C114.272 82.6957 113.747 83.167 113.073 83.4999C112.399 83.8336 111.618 84 110.73 84C109.83 84 109.041 83.8249 108.361 83.4743Z" fill="#2DABE2"/>
<path d="M125.61 73.8219C125.569 73.8623 125.52 73.8825 125.463 73.8825H119.791C119.733 73.8825 119.704 73.9113 119.704 73.9687V76.64C119.704 76.6979 119.733 76.7262 119.791 76.7262H123.509C123.566 76.7262 123.615 76.7464 123.656 76.7868C123.696 76.8271 123.716 76.8756 123.716 76.933V78.6051C123.716 78.6628 123.696 78.7113 123.656 78.7514C123.615 78.7918 123.566 78.812 123.509 78.812H119.791C119.733 78.812 119.704 78.8408 119.704 78.8979V81.6901C119.704 81.7477 119.733 81.7763 119.791 81.7763H125.463C125.52 81.7763 125.569 81.7965 125.61 81.8369C125.65 81.8772 125.67 81.9257 125.67 81.9831V83.6552C125.67 83.7128 125.65 83.7614 125.61 83.8017C125.569 83.8421 125.52 83.8618 125.463 83.8618H117.474C117.416 83.8618 117.367 83.8421 117.327 83.8017C117.286 83.7614 117.266 83.7128 117.266 83.6552V72.0036C117.266 71.9464 117.286 71.8974 117.327 71.8571C117.367 71.8169 117.416 71.7967 117.474 71.7967H125.463C125.52 71.7967 125.569 71.8169 125.61 71.8571C125.65 71.8974 125.67 71.9464 125.67 72.0036V73.6757C125.67 73.7331 125.65 73.7821 125.61 73.8219Z" fill="#2DABE2"/>
<path d="M67.3436 58.3169C67.3031 58.3573 67.2541 58.3774 67.1966 58.3774H61.5247C61.4669 58.3774 61.4382 58.4063 61.4382 58.4636V61.1349C61.4382 61.1928 61.4669 61.2211 61.5247 61.2211H65.2426C65.3004 61.2211 65.349 61.2413 65.3895 61.2817C65.4298 61.3221 65.4501 61.3706 65.4501 61.4279V63.1001C65.4501 63.1577 65.4298 63.2062 65.3895 63.2463C65.349 63.2867 65.3004 63.3069 65.2426 63.3069H61.5247C61.4669 63.3069 61.4382 63.3357 61.4382 63.3928V66.185C61.4382 66.2427 61.4669 66.2712 61.5247 66.2712H67.1966C67.2541 66.2712 67.3031 66.2914 67.3436 66.3318C67.3838 66.3722 67.4041 66.4207 67.4041 66.478V68.1502C67.4041 68.2078 67.3838 68.2563 67.3436 68.2967C67.3031 68.3371 67.2541 68.3568 67.1966 68.3568H59.2075C59.1497 68.3568 59.1008 68.3371 59.0605 68.2967C59.02 68.2563 59 68.2078 59 68.1502V56.4985C59 56.4414 59.02 56.3924 59.0605 56.352C59.1008 56.3119 59.1497 56.2917 59.2075 56.2917H67.1966C67.2541 56.2917 67.3031 56.3119 67.3436 56.352C67.3838 56.3924 67.4041 56.4414 67.4041 56.4985V58.1706C67.4041 58.228 67.3838 58.277 67.3436 58.3169Z" fill="#2DABE2"/>
<path d="M72.3151 64.5476H75.3586C75.4278 64.5476 75.4507 64.5133 75.4278 64.4442L73.8714 59.3254C73.8598 59.2796 73.8425 59.2594 73.8196 59.2648C73.7963 59.2709 73.7791 59.2906 73.7677 59.3254L72.246 64.4442C72.2343 64.5133 72.2573 64.5476 72.3151 64.5476ZM76.5691 68.1846L76.0503 66.4952C76.0271 66.4497 75.9984 66.4265 75.9638 66.4265H71.7099C71.6753 66.4265 71.6464 66.4497 71.6234 66.4952L71.122 68.1846C71.0874 68.2996 71.0123 68.3569 70.8972 68.3569H68.701C68.6319 68.3569 68.58 68.3372 68.5454 68.2969C68.5108 68.2565 68.5049 68.1961 68.5281 68.1154L72.2633 56.464C72.2978 56.3495 72.3727 56.2919 72.4881 56.2919H75.203C75.3181 56.2919 75.3932 56.3495 75.4278 56.464L79.1629 68.1154C79.1743 68.1385 79.1802 68.1673 79.1802 68.2016C79.1802 68.305 79.1167 68.3569 78.99 68.3569H76.7939C76.6785 68.3569 76.6036 68.2996 76.5691 68.1846Z" fill="#2DABE2"/>
<path d="M83.14 58.4636V61.4106C83.14 61.4683 83.1687 61.4971 83.2267 61.4971H85.492C85.976 61.4971 86.3707 61.3533 86.6763 61.0662C86.9819 60.7791 87.1346 60.4056 87.1346 59.9458C87.1346 59.4864 86.9819 59.1099 86.6763 58.8171C86.3707 58.5236 85.976 58.3774 85.492 58.3774H83.2267C83.1687 58.3774 83.14 58.4064 83.14 58.4636ZM87.1 68.2016L84.9384 63.4275C84.9154 63.3819 84.8806 63.3583 84.8347 63.3583H83.2267C83.1687 63.3583 83.14 63.3871 83.14 63.4447V68.1501C83.14 68.2077 83.1198 68.2562 83.0795 68.2969C83.039 68.3372 82.9903 68.3569 82.9325 68.3569H80.9095C80.8515 68.3569 80.8026 68.3372 80.7623 68.2969C80.7218 68.2562 80.7018 68.2077 80.7018 68.1501V56.4987C80.7018 56.4413 80.7218 56.3923 80.7623 56.3519C80.8026 56.312 80.8515 56.2919 80.9095 56.2919H85.8549C86.5928 56.2919 87.2413 56.4413 87.8003 56.74C88.3593 57.0387 88.7917 57.4636 89.0972 58.0154C89.4028 58.567 89.5557 59.2047 89.5557 59.9284C89.5557 60.7099 89.3596 61.3794 88.9678 61.9366C88.5755 62.494 88.0278 62.8875 87.3248 63.1172C87.267 63.1404 87.2499 63.1803 87.2729 63.2381L89.6247 68.1154C89.6479 68.1617 89.6595 68.1961 89.6595 68.2188C89.6595 68.3111 89.596 68.3569 89.469 68.3569H87.3423C87.2267 68.3569 87.1459 68.305 87.1 68.2016Z" fill="#2DABE2"/>
<path d="M99.8013 56.3519C99.8415 56.3923 99.8618 56.4412 99.8618 56.4986V58.1875C99.8618 58.2451 99.8415 58.2943 99.8013 58.3342C99.7608 58.3746 99.7118 58.3943 99.6543 58.3943H96.5589C96.5014 58.3943 96.4725 58.4231 96.4725 58.4807V68.15C96.4725 68.2077 96.4522 68.2564 96.412 68.2968C96.3715 68.3372 96.3225 68.3569 96.2652 68.3569H94.2418C94.184 68.3569 94.1351 68.3372 94.0948 68.2968C94.0543 68.2564 94.0343 68.2077 94.0343 68.15V58.4807C94.0343 58.4231 94.0054 58.3943 93.948 58.3943H90.9389C90.8814 58.3943 90.8322 58.3746 90.7919 58.3342C90.7514 58.2943 90.7314 58.2451 90.7314 58.1875V56.4986C90.7314 56.4412 90.7514 56.3923 90.7919 56.3519C90.8322 56.312 90.8814 56.2918 90.9389 56.2918H99.6543C99.7118 56.2918 99.7608 56.312 99.8013 56.3519Z" fill="#2DABE2"/>
<path d="M107.911 56.3519C107.951 56.312 108 56.2918 108.058 56.2918H110.081C110.139 56.2918 110.188 56.312 110.228 56.3519C110.269 56.3923 110.289 56.4412 110.289 56.4986V68.15C110.289 68.2077 110.269 68.2564 110.228 68.2968C110.188 68.3372 110.139 68.3569 110.081 68.3569H108.058C108 68.3569 107.951 68.3372 107.911 68.2968C107.871 68.2564 107.851 68.2077 107.851 68.15V63.393C107.851 63.3356 107.822 63.3068 107.764 63.3068H103.943C103.885 63.3068 103.856 63.3356 103.856 63.393V68.15C103.856 68.2077 103.836 68.2564 103.796 68.2968C103.755 68.3372 103.706 68.3569 103.649 68.3569H101.626C101.568 68.3569 101.519 68.3372 101.478 68.2968C101.438 68.2564 101.418 68.2077 101.418 68.15V56.4986C101.418 56.4412 101.438 56.3923 101.478 56.3519C101.519 56.312 101.568 56.2918 101.626 56.2918H103.649C103.706 56.2918 103.755 56.312 103.796 56.3519C103.836 56.3923 103.856 56.4412 103.856 56.4986V61.1351C103.856 61.1927 103.885 61.221 103.943 61.221H107.764C107.822 61.221 107.851 61.1927 107.851 61.1351V56.4986C107.851 56.4412 107.871 56.3923 107.911 56.3519Z" fill="#2DABE2"/>
<path d="M120.621 58.3169C120.581 58.3573 120.532 58.3774 120.474 58.3774H114.802C114.744 58.3774 114.716 58.4063 114.716 58.4636V61.1349C114.716 61.1928 114.744 61.2211 114.802 61.2211H118.52C118.578 61.2211 118.627 61.2413 118.667 61.2817C118.707 61.3221 118.728 61.3706 118.728 61.4279V63.1001C118.728 63.1577 118.707 63.2062 118.667 63.2463C118.627 63.2867 118.578 63.3069 118.52 63.3069H114.802C114.744 63.3069 114.716 63.3357 114.716 63.3928V66.185C114.716 66.2427 114.744 66.2712 114.802 66.2712H120.474C120.532 66.2712 120.581 66.2914 120.621 66.3318C120.661 66.3722 120.682 66.4207 120.682 66.478V68.1502C120.682 68.2078 120.661 68.2563 120.621 68.2967C120.581 68.3371 120.532 68.3568 120.474 68.3568H112.485C112.427 68.3568 112.378 68.3371 112.338 68.2967C112.298 68.2563 112.278 68.2078 112.278 68.1502V56.4985C112.278 56.4414 112.298 56.3924 112.338 56.352C112.378 56.3119 112.427 56.2917 112.485 56.2917H120.474C120.532 56.2917 120.581 56.3119 120.621 56.352C120.661 56.3924 120.682 56.4414 120.682 56.4985V58.1706C120.682 58.228 120.661 58.277 120.621 58.3169Z" fill="#2DABE2"/>
<path d="M125.498 68.2794C125.457 68.239 125.437 68.1905 125.437 68.1326V63.7722C125.437 63.7262 125.431 63.692 125.42 63.6688L121.858 56.5332C121.834 56.4874 121.823 56.4529 121.823 56.4298C121.823 56.3379 121.886 56.2916 122.013 56.2916H124.192C124.307 56.2916 124.388 56.3436 124.434 56.447L126.595 61.0315C126.63 61.1004 126.665 61.1004 126.699 61.0315L128.861 56.447C128.907 56.3436 128.988 56.2916 129.103 56.2916H131.317C131.397 56.2916 131.452 56.3118 131.481 56.352C131.509 56.3923 131.507 56.4529 131.472 56.5332L127.875 63.6688C127.864 63.692 127.858 63.7262 127.858 63.7722V68.1326C127.858 68.1905 127.838 68.239 127.798 68.2794C127.757 68.3198 127.708 68.3395 127.651 68.3395H125.645C125.587 68.3395 125.538 68.3198 125.498 68.2794Z" fill="#2DABE2"/>
<path d="M140.939 58.3169C140.899 58.3573 140.85 58.3774 140.793 58.3774H135.121C135.063 58.3774 135.034 58.4063 135.034 58.4636V61.1349C135.034 61.1928 135.063 61.2211 135.121 61.2211H138.838C138.896 61.2211 138.945 61.2413 138.985 61.2817C139.026 61.3221 139.046 61.3706 139.046 61.4279V63.1001C139.046 63.1577 139.026 63.2062 138.985 63.2463C138.945 63.2867 138.896 63.3069 138.838 63.3069H135.121C135.063 63.3069 135.034 63.3357 135.034 63.3928V66.185C135.034 66.2427 135.063 66.2712 135.121 66.2712H140.793C140.85 66.2712 140.899 66.2914 140.939 66.3318C140.98 66.3722 141 66.4207 141 66.478V68.1502C141 68.2078 140.98 68.2563 140.939 68.2967C140.899 68.3371 140.85 68.3568 140.793 68.3568H132.803C132.746 68.3568 132.697 68.3371 132.656 68.2967C132.616 68.2563 132.596 68.2078 132.596 68.1502V56.4985C132.596 56.4414 132.616 56.3924 132.656 56.352C132.697 56.3119 132.746 56.2917 132.803 56.2917H140.793C140.85 56.2917 140.899 56.3119 140.939 56.352C140.98 56.3924 141 56.4414 141 56.4985V58.1706C141 58.228 140.98 58.277 140.939 58.3169Z" fill="#2DABE2"/>
<path d="M108.364 41.72C106.143 43.9341 103.189 45.1534 100.048 45.1534C96.9062 45.1534 93.953 43.9341 91.7314 41.72L109.357 24.1521L110.349 23.1627C104.669 17.5005 95.4265 17.5 89.7462 23.1627C86.9945 25.9052 85.4789 29.552 85.4789 33.4306C85.4789 37.3096 86.9945 40.9562 89.7462 43.6987C92.4977 46.4414 96.1562 47.952 100.048 47.952C103.939 47.952 107.598 46.4414 110.349 43.6987C115.219 38.8454 116.005 31.1727 112.222 25.4502L110.184 27.4818C112.881 32.0402 112.157 37.9387 108.364 41.72Z" fill="#2DABE2"/>
<path d="M114.329 23.3501L113.723 23.9541C118.346 30.5608 117.565 39.4498 111.826 45.1702C105.331 51.6425 94.7644 51.643 88.2699 45.1702C81.7758 38.6971 81.7758 28.1645 88.2699 21.6915C94.4262 15.5563 104.238 15.2411 110.775 20.7364C110.677 20.9358 110.617 21.1572 110.617 21.3946C110.617 22.2241 111.291 22.8963 112.123 22.8963C112.955 22.8963 113.63 22.2241 113.63 21.3946C113.63 20.5653 112.955 19.8931 112.123 19.8931C111.837 19.8931 111.571 19.9773 111.343 20.1159C104.476 14.3195 94.1495 14.644 87.6745 21.0981C80.8517 27.8984 80.8517 38.9633 87.6745 45.7638C91.0855 49.1642 95.5667 50.8639 100.048 50.8639C104.529 50.8639 109.01 49.1642 112.421 45.7638C118.486 39.7185 119.283 30.3038 114.329 23.3501Z" fill="#2DABE2"/>
</g>
</g>
<defs>
<clipPath id="clip0_6_31">
<rect width="82" height="68" fill="white" transform="translate(59 16)"/>
</clipPath>
</defs>
</svg>
