<svg width="673" height="59" viewBox="0 0 673 59" fill="none" xmlns="http://www.w3.org/2000/svg">
<g clip-path="url(#clip0_391_2410)">
<path d="M7.65477 57.0337C12.3566 57.0119 15.3749 56.8374 16.7697 56.5266C18.1263 56.1995 18.9381 55.3054 19.1887 53.8388C19.4502 52.3776 19.5156 38.9656 19.4121 13.6082L19.107 2.15354L12.8143 2.19171C9.32194 2.54609 6.66864 3.74009 4.82714 5.74643C2.7786 8.05264 1.05151 10.3098 0.506686 15.5546H0.0871719L0 0.61062L24.5988 0.599716L49.7261 0.485223L49.7969 15.5546H49.6117C48.68 9.98266 48.2006 9.69915 47.5141 8.16168C45.6562 4.08356 42.2075 2.06631 37.1624 2.08812L30.1179 2.11536L29.9926 15.053L30.0797 33.4809C30.1288 46.8765 30.2105 53.9369 30.2922 54.6511C30.3957 55.3762 31.5344 55.916 33.7355 56.3194C35.9148 56.7066 38.5626 56.9083 41.6082 56.881L42.0441 57.8242L7.21892 57.9768L7.65478 57.0336L7.65477 57.0337ZM66.122 57.9442L55.0239 57.737L43.2939 57.9769V56.8211C48.1101 56.7881 50.6926 56.3249 50.965 55.4144C51.0794 55.0928 51.1557 53.8333 51.1938 51.6089C51.221 49.3954 51.2265 46.3204 51.2047 42.4004L51.1666 33.301L51.1448 27.6472L51.1339 25.8644L51.1284 24.5178L51.123 23.4001L51.1284 22.555C51.1067 20.7123 51.0086 19.6164 50.807 19.2566C50.5074 18.3788 47.9576 17.9481 43.125 17.9699V16.7323L55.2201 16.9231L65.9586 16.6341L65.9697 17.8663C61.8726 17.8827 59.5789 18.3079 59.0777 19.1094C58.8107 19.8399 58.6909 25.3792 58.7399 35.7271L77.2911 35.6399L77.2582 32.1615L77.2528 29.4192C77.231 23.4001 77.0893 19.9599 76.7896 19.1039C76.4846 18.237 74.1799 17.839 69.8268 17.8445L69.8322 16.6178L80.3691 16.825L92.7366 16.5142L92.7421 17.7464C87.9531 17.7627 85.4251 18.188 85.1636 19.0058C84.9021 19.8181 84.7822 24.4196 84.8367 32.7994L84.8479 36.5886C84.8914 48.3977 85.0658 54.6784 85.3546 55.4635C85.6542 56.2322 88.1604 56.6084 92.9004 56.5866L92.9115 57.8242L80.9145 57.6279L70.018 57.8678L70.0016 56.6793C74.1477 56.6681 76.436 56.2649 76.8773 55.4362C77.2096 54.8637 77.3513 48.9101 77.2913 37.6135L58.7455 37.6899C58.7891 48.8393 58.9798 54.7438 59.2468 55.3871C59.4266 55.8451 60.3637 56.1613 62.0744 56.3576C62.6465 56.4011 64.0194 56.5103 66.1224 56.712L66.122 57.9442ZM102.434 55.3599C102.712 54.4985 102.837 50.1096 102.799 42.2096L102.772 33.0447C102.734 24.4851 102.57 19.7854 102.298 18.9458C102.036 18.1116 99.4538 17.6973 94.5885 17.7136L94.5721 16.7377C96.8767 16.7214 100.162 16.705 104.422 16.6887C108.678 16.6723 111.75 16.6505 113.695 16.6505L132.781 16.5687L132.868 32.674H131.816C131.13 26.3987 129.795 22.3097 127.806 20.4288C125.834 18.5423 122.118 17.5991 116.665 17.6264C115.515 17.6319 114.371 17.6373 113.265 17.6428C111.789 17.7354 110.939 17.9862 110.748 18.4442C110.427 19.1094 110.285 24.8067 110.323 35.5418L112.807 35.5963C116.251 35.58 118.637 34.8003 119.923 33.2574C121.203 31.7308 121.852 28.8085 121.83 24.545H122.81L122.919 48.3922H121.933C121.928 44.0251 121.301 40.9611 120.097 39.2001C118.909 37.4227 116.779 36.5559 113.799 36.5668L110.339 36.5777C110.388 48.2559 110.557 54.6021 110.841 55.6325C111.015 56.2867 113.51 56.6084 118.359 56.5866C123.59 56.5595 127.207 55.5507 129.239 53.528C131.451 51.3418 133.026 47.0619 133.936 40.6503H134.922L134.971 51.6307L135.052 57.8569L112.508 57.7152L94.7572 57.9769V56.6902C99.6007 56.6631 102.15 56.2213 102.434 55.3599L102.434 55.3599ZM161.49 54.3077C161.876 53.1028 162.04 46.9638 162.002 35.8853L161.931 23.073C161.898 11.0785 161.68 4.50882 161.283 3.33118C160.918 2.15354 157.305 1.58653 150.495 1.60834L150.479 0.234429C153.699 0.218076 158.286 0.196253 164.246 0.169006C170.212 0.1363 174.533 0.125418 177.229 0.119947L203.98 0L204.089 22.5387L202.613 22.5496C201.649 13.7555 199.785 8.05264 197.023 5.3975C194.234 2.74236 189.02 1.43933 181.392 1.46659C179.79 1.47747 178.216 1.48841 176.657 1.49382C174.576 1.61922 173.399 2.00631 173.111 2.6442C172.658 3.56014 172.468 11.5365 172.539 26.5568L176.004 26.6168C180.842 26.6059 184.149 25.5046 185.958 23.3619C187.788 21.2138 188.655 17.1302 188.638 11.1657L190.011 11.1603L190.153 44.5485L188.78 44.5597C188.753 38.4423 187.903 34.1461 186.225 31.6817C184.53 29.2065 181.599 27.9853 177.377 28.0016L172.533 28.0125C172.615 44.3577 172.844 53.239 173.252 54.6784C173.492 55.6107 177.012 56.0414 183.784 56.025C191.09 55.9921 196.162 54.5639 199.022 51.7343C202.123 48.6812 204.307 42.6785 205.577 33.7262L206.971 33.7208L207.037 49.0846L207.157 57.8133L175.595 57.6007L150.74 57.9768L150.746 56.1613C157.496 56.1395 161.076 55.5234 161.49 54.3076L161.49 54.3077ZM243.185 40.1948C243.196 45.9794 241.861 50.4719 239.12 53.6723C236.396 56.889 232.583 58.4919 227.663 58.53C222.046 58.5412 217.524 56.6818 214.113 52.9362C210.713 49.1798 208.986 44.1421 208.954 37.7959C208.937 31.2099 210.67 25.8287 214.173 21.6307C217.665 17.4326 222.127 15.3336 227.467 15.3172C229.472 15.3009 231.231 15.6498 232.708 16.3476C234.222 17.0619 235.704 18.2286 237.17 19.8806L237.748 19.8697C238.314 19.0519 238.832 18.2395 239.311 17.4217C239.769 16.5876 240.177 15.6825 240.548 14.6957L241.474 14.7012L241.55 34.1813L240.439 34.1921C239.093 22.3067 234.833 16.3804 227.717 16.4185C224.176 16.4403 221.468 18.1577 219.632 21.6089C217.802 25.06 216.897 30.1522 216.941 36.9018C216.979 50.5264 220.891 57.3251 228.638 57.3033C232.697 57.2762 235.939 55.7549 238.418 52.7618C240.88 49.7522 242.101 45.6905 242.079 40.571V40.2003L243.185 40.1948V40.1948ZM256.168 21.3908C254.326 24.7329 253.428 29.6179 253.433 36.0459C253.471 42.8009 254.43 48.0349 256.37 51.775C258.282 55.5042 260.908 57.3688 264.161 57.3579C271.276 57.3196 274.812 50.9626 274.774 38.2867C274.741 31.2099 273.798 25.7688 271.957 21.996C270.137 18.2341 267.577 16.3477 264.286 16.3641C260.728 16.3695 258.02 18.0542 256.168 21.3908V21.3908ZM256.626 56.9272C254.283 55.8586 252.207 54.3484 250.447 52.4074C248.671 50.4774 247.293 48.1985 246.285 45.5542C245.293 42.9263 244.792 40.2167 244.781 37.4362C244.776 34.2413 245.331 31.2045 246.47 28.3367C247.598 25.4689 249.2 22.9665 251.286 20.8347C254.909 17.1328 259.29 15.2627 264.422 15.2518C268.497 15.23 272.246 16.5985 275.613 19.379C278.081 21.4072 279.988 23.9533 281.399 27.0228C282.777 30.0923 283.469 33.358 283.475 36.8419C283.523 42.85 281.6 47.964 277.743 52.1675C273.891 56.382 269.227 58.4973 263.796 58.5301C261.377 58.5301 259.001 58.0066 256.626 56.9272H256.626ZM279.088 56.8783C282.438 56.3604 284.645 55.4008 285.696 54.0051C286.639 52.7839 287.113 50.5267 287.097 47.2882L287.075 45.2437L286.481 21.6909C285.696 20.017 284.743 18.9102 283.588 18.3813C282.433 17.858 280.651 17.5908 278.238 17.6072L278.227 16.6094L284.917 16.713L291.558 16.6912L313.749 45.5433L313.667 28.5058C313.657 24.3731 313.123 21.5708 312.115 20.0933C310.862 18.3432 308.372 17.4763 304.645 17.4872V16.4949L313.482 16.5931L322.265 16.5495L322.27 17.4109C318.827 17.4273 316.631 18.3105 315.645 20.077C314.959 21.3091 314.637 24.0024 314.648 28.1351L314.703 42.2722C314.719 44.3112 314.796 47.1735 314.932 50.8155C315.068 54.4575 315.15 57.0962 315.155 58.6937H313.918C312.736 56.611 311.51 54.7082 310.322 52.9963C309.62 51.944 307.843 49.5561 304.983 45.8541L287.532 23.0483L288.055 45.5434C288.099 49.8069 288.709 52.7182 289.908 54.3102C291.134 55.9131 293.591 56.6819 297.258 56.671L297.269 57.7777L289.532 57.6905C288.339 57.6959 286.503 57.7559 284.002 57.8704C281.496 57.9795 279.862 58.0285 279.088 58.034L279.088 56.8783ZM329.325 21.3855C327.489 24.744 326.579 29.6181 326.601 36.0406C326.645 42.7957 327.593 48.046 329.521 51.7697C331.439 55.5152 334.027 57.3744 337.318 57.3635C344.45 57.32 347.985 50.9682 347.92 38.2759C347.887 31.1992 346.95 25.7799 345.12 22.0016C343.278 18.2179 340.734 16.3424 337.443 16.3642C333.891 16.3697 331.167 18.0598 329.325 21.3855V21.3855ZM329.783 56.9328C327.429 55.8533 325.37 54.3485 323.594 52.4076C321.823 50.4612 320.456 48.1932 319.448 45.5544C318.456 42.921 317.955 40.2168 317.944 37.4309C317.933 34.2469 318.489 31.2046 319.622 28.3369C320.755 25.4746 322.351 22.9612 324.438 20.824C328.072 17.1329 332.436 15.2684 337.558 15.2465C341.66 15.2357 345.387 16.6096 348.754 19.3792C351.233 21.4019 353.167 23.9534 354.529 27.0175C355.929 30.0924 356.61 33.3527 356.632 36.8366C356.67 42.8556 354.736 47.9587 350.889 52.1731C347.054 56.3821 342.396 58.5084 336.964 58.5302C334.545 58.5357 332.142 58.0123 329.783 56.9328V56.9328ZM361.781 18.9012L362.402 45.06C362.429 49.6997 362.909 52.7801 363.862 54.2849C365.006 56.084 367.409 56.9836 371.059 56.9727L371.048 57.8887L365.785 57.8504C364.385 57.845 362.353 57.9268 359.683 58.0631C357.035 58.1939 355.063 58.2539 353.799 58.2648L353.804 57.2834C356.605 57.278 358.588 56.7218 359.716 55.6369C360.849 54.552 361.405 52.731 361.383 50.2012L361.388 49.945L360.849 26.3921C360.838 23.1154 360.359 20.8692 359.422 19.6806C358.474 18.4757 356.545 17.8706 353.625 17.8924V16.8456L360.043 16.8783L369.675 16.8347L379.112 46.232H379.597L388.526 16.7475C389.039 16.7475 389.79 16.7475 390.771 16.7366C391.763 16.7366 392.449 16.7311 392.858 16.7311L398.339 16.7039L405.094 16.6712V17.7834C400.425 17.8106 397.995 18.1378 397.788 18.7757C397.598 19.4081 397.5 21.3708 397.511 24.6366L397.522 26.1196L397.625 48.1185C397.609 49.5142 397.642 51.0135 397.647 52.6328C397.647 54.2629 397.723 55.2552 397.876 55.6151C398.225 56.4438 400.676 56.8472 405.264 56.8145V57.8013L393.779 57.725L381.994 57.7738V56.9124C386.031 56.8906 388.418 56.7652 389.082 56.5089C389.747 56.269 390.09 55.3313 390.079 53.6793L389.954 19.0153L388.973 19.0262L383.084 38.3591C380.283 47.5351 378.463 54.072 377.635 57.9812L375.483 57.9976L362.849 18.8957L361.781 18.9012ZM414.525 55.4201C414.694 54.9185 414.808 52.8195 414.874 49.1066C414.95 45.4102 414.966 40.1326 414.933 33.2848C414.879 24.8342 414.721 20.1454 414.405 19.2077C414.089 18.2645 411.545 17.8065 406.756 17.8338L406.744 16.7161C409.033 16.7052 411.915 16.7216 415.38 16.7761C418.834 16.8197 420.578 16.8524 420.637 16.847C421.035 16.847 422.501 16.8034 424.985 16.7379C427.491 16.6616 429.36 16.618 430.58 16.618V17.7302C425.748 17.752 423.187 18.2154 422.882 19.1368C422.566 20.0746 422.441 25.8973 422.495 36.6378C422.55 48.2725 422.74 54.5259 423.078 55.4092C423.416 56.2924 425.966 56.7068 430.766 56.6959V57.9226L418.839 57.7263L406.924 57.9771L406.913 56.7885C411.729 56.7774 414.257 56.3251 414.524 55.4201H414.525ZM459.779 53.6724C457.034 56.8836 453.225 58.4974 448.316 58.5302C442.694 58.5466 438.194 56.6928 434.772 52.9364C431.356 49.1854 429.64 44.1313 429.607 37.8015C429.585 31.1991 431.318 25.8289 434.816 21.6254C438.313 17.4382 442.754 15.3337 448.126 15.3174C450.136 15.3065 451.88 15.6499 453.383 16.3478C454.892 17.0511 456.358 18.2233 457.84 19.8753H458.412C458.973 19.0574 459.485 18.2287 459.965 17.4055C460.417 16.5822 460.853 15.6881 461.201 14.6958L462.117 14.7067L462.209 34.1814L461.103 34.1922C459.747 22.3067 455.503 16.3858 448.376 16.413C444.797 16.4348 442.127 18.1577 440.291 21.5979C438.455 25.0599 437.551 30.1467 437.589 36.8963C437.638 50.5209 441.566 57.3251 449.27 57.2923C453.351 57.2812 456.592 55.7658 459.066 52.7617C461.518 49.7467 462.749 45.6959 462.733 40.571V40.2057L463.828 40.1948C463.861 45.9849 462.52 50.4664 459.78 53.6722L459.779 53.6724ZM485.636 57.023C490.354 57.0065 493.389 56.8267 494.773 56.5214C496.13 56.1943 496.963 55.311 497.197 53.8335C497.464 52.3669 497.53 38.9604 497.415 13.6085L497.105 2.16465L490.828 2.181C487.336 2.54084 484.677 3.72938 482.841 5.74663C480.798 8.04739 479.354 8.83793 478.521 15.8983H478.096L478.014 0.610816L502.602 0.57811L527.708 0.474522L527.789 15.8983H527.626C526.918 10.0426 526.204 9.6828 525.507 8.14533C523.654 4.07266 520.211 2.05541 515.16 2.08267L508.11 2.1099L507.996 15.0476L508.083 33.4809C508.138 46.882 508.214 53.926 508.306 54.6402C508.405 55.3653 509.532 55.916 511.728 56.3031C513.94 56.7011 516.566 56.8974 519.612 56.8701L520.047 57.8187L485.239 57.9769L485.636 57.0227L485.636 57.023ZM529.359 55.4199C529.522 54.9401 529.636 52.8301 529.696 49.1228C529.762 45.4099 529.794 40.1269 529.756 33.2955C529.713 24.8558 529.544 20.1616 529.233 19.2184C528.912 18.2807 526.367 17.8336 521.567 17.8445V16.7268C523.861 16.7268 526.749 16.7432 530.214 16.7868C533.668 16.8413 535.406 16.8577 535.45 16.8522C535.858 16.8577 537.313 16.8195 539.803 16.7432C542.32 16.6723 544.172 16.6232 545.414 16.6232L545.403 17.7354C540.582 17.7681 538.015 18.2316 537.716 19.1475C537.383 20.0744 537.28 25.9189 537.324 36.6485C537.378 48.2832 537.563 54.5367 537.901 55.4199C538.212 56.2922 540.794 56.7229 545.583 56.7066L545.6 57.9387L533.652 57.7424L521.753 57.9768L521.747 56.8047C526.536 56.7829 529.064 56.3249 529.358 55.4198L529.359 55.4199ZM555.125 18.8438L555.725 45.0027C555.752 49.6478 556.226 52.7282 557.174 54.2439C558.323 56.0376 560.737 56.9317 564.377 56.9154V57.8422L559.081 57.7934C557.702 57.8046 555.676 57.8752 553.022 58.0115C550.353 58.1532 548.391 58.2078 547.111 58.2186V57.2318C549.95 57.2206 551.916 56.6757 553.022 55.5853C554.15 54.4949 554.717 52.6903 554.706 50.1496L554.689 49.8934L554.177 26.3352C554.166 23.0746 553.676 20.8175 552.739 19.6235C551.791 18.4186 549.868 17.8243 546.948 17.8352L546.959 16.7939L553.371 16.8211L562.982 16.7776L572.424 46.1967L572.93 46.1855L581.833 16.6955C582.361 16.6955 583.108 16.6846 584.094 16.69C585.08 16.6846 585.794 16.6792 586.192 16.6792L591.651 16.6519L598.412 16.6301L598.4 17.7314C593.753 17.7532 591.301 18.0803 591.116 18.7237C590.903 19.3507 590.816 21.3134 590.827 24.601L590.851 26.073L590.927 48.0665C590.939 49.4513 590.945 50.9615 590.957 52.5972C590.957 54.2055 591.055 55.1923 591.223 55.5685C591.55 56.3863 593.991 56.7898 598.6 56.7625V57.7548L587.115 57.673L575.315 57.7112L575.326 56.8662C579.357 56.8497 581.727 56.7135 582.408 56.4682C583.09 56.2174 583.405 55.2742 583.395 53.6277L583.253 18.98H582.296L576.401 38.3022C573.611 47.4943 571.797 54.0367 570.958 57.9295L568.806 57.9407L556.161 18.8387L555.125 18.8438ZM607.774 55.3599C608.047 54.5039 608.178 50.115 608.145 42.1987L608.104 33.0502C608.08 24.4905 607.918 19.7745 607.646 18.9458C607.368 18.1007 604.808 17.7027 599.926 17.7191V16.7322C602.225 16.7104 605.5 16.6995 609.755 16.6777C614.021 16.6668 617.104 16.6505 619.028 16.6341L638.145 16.5632L638.198 32.6631H637.147C636.466 26.3987 635.137 22.2988 633.159 20.4178C631.187 18.526 627.46 17.5937 622.001 17.6209C620.846 17.6264 619.723 17.6264 618.601 17.6318C617.136 17.7245 616.286 17.9917 616.095 18.4496C615.773 19.1039 615.626 24.8067 615.67 35.5308L618.138 35.5854C621.603 35.5745 623.968 34.7894 625.259 33.2574C626.555 31.7199 627.182 28.7976 627.177 24.5505L628.146 24.5396L628.261 48.3922H627.269C627.246 44.0197 626.648 40.9611 625.439 39.1892C624.251 37.4282 622.132 36.5504 619.135 36.5613L615.681 36.5777C615.722 48.2505 615.899 54.5912 616.188 55.6162C616.346 56.2868 618.857 56.5975 623.712 56.5757C628.92 56.5539 632.549 55.5289 634.597 53.5117C636.809 51.3418 638.362 47.0456 639.261 40.6503L640.263 40.6449L640.31 51.6307L640.397 57.8678L617.853 57.7043L600.108 57.9769L600.084 56.6793C604.928 56.6681 607.505 56.2214 607.772 55.3599L607.774 55.3599ZM642.433 58.53L642.351 39.9113L643.272 39.9059C644.727 45.636 646.857 49.9921 649.674 53.0071C652.49 55.9894 655.787 57.4941 659.557 57.4778C662.139 57.4723 664.199 56.7309 665.74 55.2643C667.255 53.7977 667.991 51.8622 667.985 49.4906C667.973 46.4047 666.792 44.1203 664.416 42.6537C662.837 41.6778 659.671 40.6092 654.898 39.4643C650.131 38.3139 646.677 36.8364 644.536 35.0372C642.106 32.9982 640.896 30.1522 640.875 26.543C640.88 23.2172 642.008 20.4749 644.318 18.2995C646.612 16.135 649.581 15.0446 653.199 15.0283C657.416 15.0174 661.153 16.8602 664.427 20.5784C665.332 19.946 666.035 19.2263 666.574 18.3813C667.097 17.5362 667.522 16.3913 667.849 14.9683L668.47 14.9629L668.53 30.8664L667.686 30.8828C666.743 26.2376 664.989 22.6066 662.379 20.0278C659.769 17.4054 656.637 16.1187 653.057 16.1405C650.393 16.1514 648.279 16.8165 646.732 18.1305C645.19 19.4499 644.411 21.2272 644.416 23.4408C644.434 25.9759 645.626 27.8896 648.006 29.1436C649.81 30.1195 653.16 31.09 658.037 32.0277C662.902 32.9655 666.465 34.3993 668.666 36.3185C671.107 38.4066 672.322 41.4106 672.344 45.3525C672.355 49.1634 671.14 52.2984 668.672 54.7627C666.204 57.2052 663.049 58.4319 659.186 58.4646C654.762 58.4758 650.84 56.3274 647.445 51.9985C645.435 53.1925 643.958 55.3733 643.038 58.53H642.433" fill="white"/>
</g>
<defs>
<clipPath id="clip0_391_2410">
<rect width="672.344" height="58.6937" fill="white"/>
</clipPath>
</defs>
</svg>
