<svg width="60" height="60" viewBox="0 0 60 60" fill="none" xmlns="http://www.w3.org/2000/svg">
<path d="M54.3039 43.0849C53.1129 42.7844 51.8619 42.8197 50.6898 43.1869C49.5176 43.5541 48.4701 44.2388 47.6633 45.1651L46.5617 46.4228C46.1696 46.8702 45.6505 47.1875 45.0735 47.3323C44.4965 47.4771 43.8891 47.4425 43.3322 47.2332C42.7754 47.024 42.2956 46.6499 41.9567 46.1609C41.6179 45.672 41.4362 45.0913 41.4359 44.4964C41.4359 40.1785 37.4286 38.4105 37.3506 38.344C36.7516 38.0781 36.2444 37.6414 35.8924 37.0887C35.5403 36.536 35.3591 35.8917 35.3713 35.2365C35.3836 34.5813 35.5888 33.9443 35.9612 33.4051C36.3337 32.866 36.8569 32.4486 37.4653 32.2053C40.755 30.7004 42.8589 30.5987 44.5726 28.315L47.0337 25.0322C50.2666 26.7465 52.8521 29.4686 54.398 32.7854C55.9438 36.1022 56.3655 39.8327 55.5991 43.4108L54.3039 43.0849Z" fill="#808080"/>
<path d="M27.8745 36.2763C27.5954 37.5199 27.1213 38.7115 26.4699 39.807C26.11 40.5289 26.0511 41.3641 26.3061 42.1294C26.5611 42.8946 27.1092 43.5276 27.8302 43.8893C28.357 44.1525 28.8165 44.5331 29.1733 45.0017C29.5301 45.4703 29.7747 46.0145 29.8883 46.5924C30.0019 47.1703 29.9816 47.7665 29.8288 48.3353C29.6759 48.9041 29.3948 49.4303 29.0068 49.8734L27.2931 51.832C24.3906 48.9594 22.6342 45.1277 22.3526 41.0539C22.071 36.98 23.2834 32.9431 25.763 29.6985C26.0193 30.1904 28.5072 32.4595 27.8745 36.2763Z" fill="#808080"/>
<path d="M36.8977 30.7873C36.0097 31.1421 35.2461 31.751 34.7024 32.5377C34.1587 33.3243 33.8592 34.2539 33.8412 35.21C33.8233 36.1661 34.0877 37.1062 34.6014 37.9128C35.1151 38.7193 35.8553 39.3565 36.7294 39.7444C37.665 40.1398 38.4644 40.8004 39.029 41.6448C39.5936 42.4892 39.8987 43.4804 39.9066 44.4961C39.9066 45.4026 40.1831 46.2875 40.6992 47.0328C41.2154 47.778 41.9465 48.3481 42.7951 48.6669C43.6437 48.9857 44.5693 49.0382 45.4485 48.8172C46.3276 48.5961 47.1184 48.1122 47.7154 47.43L48.8163 46.1723C49.4376 45.4578 50.245 44.9297 51.1486 44.6467C52.0521 44.3638 53.0165 44.337 53.9344 44.5695L55.2151 44.8893C54.5341 47.0597 53.4224 49.0704 51.9465 50.8012C50.4706 52.532 48.6607 53.9474 46.6252 54.9626C46.0985 54.1008 45.3599 53.3882 44.4798 52.8927C43.5997 52.3972 42.6073 52.1353 41.5973 52.132C41.4613 52.1324 41.3278 52.0948 41.212 52.0232C41.0963 51.9517 41.0029 51.8492 40.9425 51.7273C40.7788 51.4 40.5382 51.1172 40.2414 50.9032C39.9445 50.6892 39.6002 50.5504 39.2379 50.4986C33.5889 49.6892 30.5539 54.1555 30.4002 54.2687C29.7096 53.8474 29.0502 53.377 28.4271 52.8611L30.1592 50.8819C30.7009 50.2626 31.0936 49.5273 31.3069 48.7326C31.5202 47.9379 31.5485 47.1048 31.3897 46.2975C31.2309 45.4901 30.8891 44.7299 30.3906 44.0752C29.8922 43.4205 29.2503 42.8887 28.5143 42.5208C28.1561 42.3409 27.8838 42.0263 27.7571 41.646C27.6305 41.2656 27.6599 40.8506 27.8388 40.4919C28.5641 39.2625 29.086 37.924 29.3842 36.5282C30.1592 31.8844 27.1128 29.1417 26.7693 28.4952C29.1066 25.9521 32.1708 24.1911 35.5449 23.4518C38.9189 22.7126 42.4388 23.0311 45.6253 24.364L43.3493 27.3959C41.9906 29.2044 40.3656 29.232 36.8977 30.7873Z" fill="#808080"/>
<path d="M39.0205 52.0138C39.1377 52.0305 39.2491 52.0753 39.3452 52.1445C39.4412 52.2136 39.5191 52.305 39.5721 52.4109C39.7586 52.788 40.0472 53.1052 40.4051 53.3265C40.7629 53.5477 41.1757 53.6641 41.5964 53.6625C42.3087 53.6657 43.0095 53.8429 43.6378 54.1786C44.266 54.5143 44.8028 54.9984 45.2013 55.5889C43.0444 56.4246 40.7382 56.8055 38.4271 56.7076C36.1161 56.6098 33.8502 56.0354 31.7717 55.0204C32.6008 53.917 33.7106 53.056 34.9855 52.5272C36.2604 51.9985 37.6538 51.8211 39.0205 52.0138Z" fill="#808080"/>
<path d="M40.3125 22.4999C37.9366 22.5047 35.6347 23.3275 33.7942 24.83C31.9536 26.3325 30.6866 28.423 30.2063 30.7499C30.2006 30.8089 30.2006 30.8682 30.2063 30.9271L28.8375 31.3377C28.2015 31.5305 27.6307 31.8944 27.1875 32.3896C26.744 31.8945 26.1728 31.531 25.5366 31.3387L24.1688 30.9281C24.1744 30.8691 24.1744 30.8098 24.1688 30.7509C23.6599 28.2447 22.2379 26.017 20.179 24.5002C18.12 22.9834 15.571 22.2858 13.0266 22.5427C10.4822 22.7996 8.12401 23.9927 6.40981 25.8904C4.69561 27.7881 3.74767 30.2551 3.75 32.8124V47.8124C3.75 48.5583 4.04632 49.2737 4.57377 49.8012C5.10121 50.3286 5.81658 50.6249 6.5625 50.6249H21.5625C22.3084 50.6249 23.0238 50.3286 23.5512 49.8012C24.0787 49.2737 24.375 48.5583 24.375 47.8124V38.4421C24.9044 38.4654 25.4323 38.3689 25.9193 38.1598C26.4062 37.9508 26.8397 37.6345 27.1875 37.2346C27.5357 37.634 27.9693 37.9499 28.4561 38.1589C28.943 38.3679 29.4707 38.4647 30 38.4421V47.8124C30 48.5583 30.2963 49.2737 30.8238 49.8012C31.3512 50.3286 32.0666 50.6249 32.8125 50.6249H47.8125C48.5584 50.6249 49.2738 50.3286 49.8012 49.8012C50.3287 49.2737 50.625 48.5583 50.625 47.8124V32.8124C50.6218 30.0784 49.5342 27.4572 47.601 25.5239C45.6677 23.5907 43.0466 22.5031 40.3125 22.4999ZM21.5625 48.7499H6.5625C6.31386 48.7499 6.07541 48.6512 5.89959 48.4753C5.72378 48.2995 5.625 48.0611 5.625 47.8124V32.8124C5.62215 30.7916 6.34468 28.8368 7.6612 27.3037C8.97772 25.7705 10.8008 24.7608 12.7988 24.4582C14.7969 24.1555 16.8372 24.58 18.5487 25.6545C20.2602 26.729 21.5292 28.382 22.125 30.313L21.555 30.1424C20.6325 29.8656 19.6379 29.9665 18.7898 30.423C17.9418 30.8795 17.3098 31.6542 17.033 32.5766C16.7561 33.4991 16.857 34.4938 17.3135 35.3418C17.77 36.1898 18.5447 36.8218 19.4672 37.0987L22.5047 38.0109V47.8124C22.5047 47.9359 22.4803 48.0582 22.4329 48.1723C22.3855 48.2863 22.316 48.3899 22.2284 48.477C22.1409 48.5641 22.037 48.6331 21.9227 48.6799C21.8084 48.7268 21.686 48.7505 21.5625 48.7499ZM23.9888 36.4996L20.0016 35.3024C19.5555 35.1685 19.1809 34.8629 18.9602 34.4528C18.7394 34.0427 18.6906 33.5618 18.8245 33.1157C18.9584 32.6696 19.264 32.295 19.6741 32.0743C20.0842 31.8536 20.5652 31.8048 21.0113 31.9387L24.9984 33.1349C25.4354 33.2765 25.7996 33.5836 26.0129 33.9903C26.2262 34.3971 26.2717 34.8713 26.1397 35.3112C26.0077 35.7512 25.7086 36.1219 25.3066 36.3441C24.9045 36.5662 24.4315 36.622 23.9888 36.4996ZM28.125 34.8168C28.1234 34.4387 28.2445 34.0704 28.4702 33.7671C28.6959 33.4638 29.014 33.2419 29.3766 33.1349C33.4078 31.949 33.4237 31.8627 33.8766 31.8627C34.2979 31.8639 34.7048 32.0165 35.023 32.2927C35.3412 32.5688 35.5496 32.9501 35.6102 33.367C35.6707 33.784 35.5795 34.2088 35.353 34.5641C35.1265 34.9194 34.7798 35.1814 34.3763 35.3024L30.3891 36.4996C30.1266 36.5788 29.8492 36.5954 29.5792 36.5481C29.3091 36.5009 29.0539 36.3911 28.8338 36.2276C28.6138 36.064 28.4351 35.8513 28.312 35.6063C28.1889 35.3613 28.1249 35.091 28.125 34.8168ZM48.75 47.8124C48.75 48.0611 48.6512 48.2995 48.4754 48.4753C48.2996 48.6512 48.0611 48.7499 47.8125 48.7499H32.8125C32.5639 48.7499 32.3254 48.6512 32.1496 48.4753C31.9738 48.2995 31.875 48.0611 31.875 47.8124V38.0109L34.9116 37.0987C35.3683 36.9617 35.7936 36.7361 36.1632 36.4348C36.5328 36.1335 36.8394 35.7623 37.0655 35.3425C37.2916 34.9226 37.4328 34.4624 37.4811 33.988C37.5293 33.5136 37.4837 33.0343 37.3467 32.5776C37.2098 32.1208 36.9842 31.6955 36.6828 31.326C36.3815 30.9564 36.0103 30.6498 35.5905 30.4237C35.1707 30.1975 34.7104 30.0563 34.236 30.0081C33.7616 29.9598 33.2824 30.0055 32.8256 30.1424L32.2547 30.313C32.8533 28.3857 34.1229 26.7367 35.8332 25.6653C37.5435 24.5939 39.5811 24.171 41.5765 24.4734C43.5719 24.7757 45.3928 25.7833 46.709 27.3132C48.0251 28.8432 48.7492 30.7943 48.75 32.8124V47.8124Z" fill="#00D4FF"/>
<path d="M14.0625 20.625C15.7313 20.625 17.3626 20.1302 18.7501 19.203C20.1377 18.2759 21.2191 16.9581 21.8577 15.4164C22.4963 13.8746 22.6634 12.1781 22.3379 10.5414C22.0123 8.90471 21.2087 7.4013 20.0287 6.22129C18.8487 5.04128 17.3453 4.23769 15.7086 3.91213C14.0719 3.58657 12.3754 3.75366 10.8336 4.39227C9.29186 5.03088 7.9741 6.11234 7.04698 7.49988C6.11985 8.88742 5.625 10.5187 5.625 12.1875C5.62773 14.4244 6.51755 16.569 8.0993 18.1507C9.68105 19.7325 11.8256 20.6223 14.0625 20.625ZM14.0625 5.625C15.2302 5.6226 16.3774 5.93246 17.3851 6.52248C18.3929 7.1125 19.2245 7.96123 19.7939 8.98074C20.3634 10.0002 20.6498 11.1535 20.6237 12.3209C20.5976 13.4884 20.2598 14.6276 19.6453 15.6206C18.4862 15.228 17.4676 14.5041 16.7156 13.5384C16.5771 13.3318 16.3622 13.1887 16.1182 13.1405C15.8742 13.0923 15.621 13.1431 15.4144 13.2816C15.2078 13.4201 15.0646 13.635 15.0164 13.879C14.9683 14.123 15.019 14.3762 15.1575 14.5828C15.984 15.6979 17.0868 16.5783 18.3572 17.1375C17.5572 17.8338 16.6003 18.3259 15.5686 18.5715C14.5368 18.8172 13.4609 18.8091 12.4329 18.548C11.405 18.2869 10.4556 17.7805 9.66619 17.0722C8.87674 16.364 8.27072 15.4749 7.90002 14.4812C7.52932 13.4875 7.40499 12.4187 7.53768 11.3665C7.67037 10.3142 8.05612 9.30978 8.6619 8.4392C9.26768 7.56863 10.0754 6.85784 11.016 6.36773C11.9566 5.87761 13.0019 5.62276 14.0625 5.625Z" fill="#00D4FF"/>
<path d="M40.3125 20.625C41.9813 20.625 43.6126 20.1302 45.0001 19.203C46.3877 18.2759 47.4691 16.9581 48.1077 15.4164C48.7463 13.8746 48.9134 12.1781 48.5879 10.5414C48.2623 8.90471 47.4587 7.4013 46.2787 6.22129C45.0987 5.04128 43.5953 4.23769 41.9586 3.91213C40.3219 3.58657 38.6254 3.75366 37.0836 4.39227C35.5419 5.03088 34.2241 6.11234 33.297 7.49988C32.3699 8.88742 31.875 10.5187 31.875 12.1875C31.8775 14.4245 32.7672 16.5692 34.349 18.151C35.9308 19.7328 38.0755 20.6225 40.3125 20.625ZM40.3125 5.625C41.3731 5.62276 42.4184 5.87761 43.359 6.36773C44.2996 6.85784 45.1073 7.56863 45.7131 8.4392C46.3189 9.30978 46.7046 10.3142 46.8373 11.3665C46.97 12.4187 46.8457 13.4875 46.475 14.4812C46.1043 15.4749 45.4983 16.364 44.7088 17.0722C43.9194 17.7805 42.97 18.2869 41.9421 18.548C40.9141 18.8091 39.8382 18.8172 38.8064 18.5715C37.7747 18.3259 36.8178 17.8338 36.0178 17.1375C37.2882 16.5783 38.391 15.6979 39.2175 14.5828C39.3546 14.3763 39.4044 14.1239 39.3559 13.8808C39.3074 13.6377 39.1646 13.4237 38.9587 13.2856C38.7528 13.1475 38.5006 13.0966 38.2573 13.144C38.014 13.1914 37.7993 13.3332 37.6603 13.5384C36.9072 14.5032 35.8886 15.2269 34.7297 15.6206C34.1152 14.6276 33.7774 13.4884 33.7513 12.3209C33.7252 11.1535 34.0116 10.0002 34.5811 8.98074C35.1505 7.96123 35.9821 7.1125 36.9899 6.52248C37.9976 5.93246 39.1448 5.6226 40.3125 5.625Z" fill="#00D4FF"/>
</svg>
